<svg xmlns="http://www.w3.org/2000/svg" width="27" height="36" fill="none"><path fill="#090908" d="M.27 35.315v-4.77c.21.03.367.045.473.045.674 0 1.2-.21 1.574-.63.375-.435.563-1.05.563-1.845V1.925h4.86V28.88c0 1.425-.263 2.617-.788 3.578-.51.96-1.26 1.68-2.25 2.16-.99.48-2.19.72-3.6.72H.698c-.134 0-.277-.008-.427-.023ZM10.8 35V1.925h4.95c1.56 0 2.88.255 3.96.765s1.95 1.38 2.61 2.61c.66 1.23 1.133 2.917 1.418 5.063.3 2.145.45 4.852.45 8.122 0 3.285-.15 6-.45 8.145-.285 2.13-.758 3.81-1.418 5.04-.66 1.215-1.53 2.078-2.61 2.587-1.08.495-2.4.743-3.96.743H10.8Zm4.86-4.86c1.2 0 2.047-.473 2.543-1.418.495-.945.794-2.295.9-4.05.104-1.755.157-3.84.157-6.255 0-2.445-.053-4.53-.158-6.255-.105-1.74-.412-3.067-.922-3.982-.495-.93-1.335-1.395-2.52-1.395V30.14Z"/><path fill="none"  d="M0 2.528 3.723 0 25.65 32.294l-3.723 2.528z"/></svg>