<svg xmlns="http://www.w3.org/2000/svg" xmlns:xlink="http://www.w3.org/1999/xlink" width="34px" height="40px" viewBox="0 0 34 48" version="1.1">
  
  <g id="surface1">
    <path style="stroke:none;fill-rule:nonzero;fill:black;fill-opacity:1;" d="M 6.5 1.316406 C 6.5 1.753906 10.5 8.292969 10.75 8.292969 C 10.898438 8.292969 11 6.632812 11 4.636719 L 11 0.976562 L 8.75 0.976562 C 7.5 0.976562 6.5 1.121094 6.5 1.316406 Z M 6.5 1.316406 "/>
    <path style="stroke:none;fill-rule:nonzero;fill:black;fill-opacity:1;" d="M 14.898438 1.269531 C 14.648438 1.464844 14.5 4.488281 14.5 7.949219 L 14.5 14.292969 L 17.902344 19.613281 L 21.25 24.878906 L 21.398438 16.339844 L 21.5 7.753906 L 22.652344 8.050781 C 25.75 8.929688 26.5 12.148438 26.5 24.148438 L 26.5 33.125 L 28.902344 36.78125 C 30.199219 38.828125 31.398438 40.488281 31.550781 40.488281 C 33.199219 40.488281 34.148438 19.753906 32.847656 12.488281 C 31.25 3.707031 28.902344 1.558594 20.152344 1.121094 C 17.449219 0.976562 15.101562 1.023438 14.898438 1.269531 Z M 14.898438 1.269531 "/>
    <path style="stroke:none;fill-rule:nonzero;fill:black;fill-opacity:1;" d="M 4 21.265625 C 4 38.195312 3.949219 39.414062 3.097656 40.144531 C 2.601562 40.636719 1.800781 40.976562 1.347656 40.976562 C 0.652344 40.976562 0.5 41.511719 0.5 44.4375 L 0.5 47.851562 L 2.847656 47.511719 C 5.949219 47.074219 7 46.683594 8.453125 45.367188 C 10.851562 43.121094 11 41.953125 11 27.511719 L 11 14 L 7.898438 9.125 C 6.148438 6.4375 4.601562 4 4.398438 3.707031 C 4.203125 3.414062 4 11.316406 4 21.265625 Z M 4 21.265625 "/>
    <path style="stroke:none;fill-rule:nonzero;fill:black;fill-opacity:1;" d="M 14.601562 33.414062 L 14.75 47.074219 L 19.25 47.074219 C 24.847656 47.074219 26.847656 46.636719 28.699219 45.171875 L 30.199219 44.050781 L 28.050781 40.535156 L 25.851562 37.023438 L 24.949219 38.539062 C 24.449219 39.316406 23.800781 40 23.546875 40 C 23.296875 40 22.75 40.144531 22.300781 40.292969 C 21.601562 40.535156 21.5 39.949219 21.5 35.460938 L 21.5 30.292969 L 18.449219 25.511719 C 16.75 22.878906 15.199219 20.539062 14.953125 20.242188 C 14.648438 20 14.550781 25.417969 14.601562 33.414062 Z M 14.601562 33.414062 "/>
  </g>
</svg>