<svg xmlns="http://www.w3.org/2000/svg" xmlns:xlink="http://www.w3.org/1999/xlink" width="26px" height="50px" viewBox="0 0 26 50" version="1.1">
<g id="surface1">
<path style=" stroke:none;fill-rule:nonzero;fill:rgb(0%,0%,0%);fill-opacity:1;" d="M 4.03125 9.914062 C 3.996094 9.96875 4.371094 10.53125 4.84375 11.191406 C 5.3125 11.839844 5.765625 12.488281 5.839844 12.617188 C 6.292969 13.355469 6.972656 14.25 7.050781 14.207031 C 7.09375 14.175781 7.136719 13.179688 7.136719 11.992188 L 7.136719 9.839844 L 5.609375 9.839844 C 4.765625 9.839844 4.050781 9.871094 4.03125 9.914062 Z M 4.03125 9.914062 "/>
<path style=" stroke:none;fill-rule:nonzero;fill:rgb(0%,0%,0%);fill-opacity:1;" d="M 8.785156 13.355469 L 8.785156 16.890625 L 9.089844 17.289062 C 9.265625 17.507812 9.550781 17.894531 9.738281 18.167969 C 10.046875 18.632812 10.441406 19.191406 11.671875 20.921875 C 11.957031 21.335938 12.429688 22.003906 12.703125 22.40625 C 12.96875 22.816406 13.242188 23.140625 13.296875 23.140625 C 13.351562 23.140625 13.394531 21.324219 13.394531 18.761719 L 13.394531 14.382812 L 13.867188 14.382812 C 14.757812 14.382812 15.492188 15.0625 15.964844 16.296875 C 16.128906 16.761719 16.316406 17.453125 16.359375 17.839844 C 16.414062 18.230469 16.503906 18.761719 16.570312 19.03125 C 16.632812 19.324219 16.6875 21.203125 16.6875 23.832031 C 16.6875 27.347656 16.722656 28.179688 16.84375 28.320312 C 16.917969 28.417969 17.226562 28.828125 17.511719 29.25 C 17.808594 29.660156 18.414062 30.535156 18.875 31.195312 C 19.324219 31.84375 19.863281 32.625 20.070312 32.925781 C 20.28125 33.21875 20.519531 33.464844 20.632812 33.464844 C 20.851562 33.464844 20.90625 33.207031 21.136719 31.195312 C 21.378906 29.023438 21.378906 21.117188 21.136719 19.042969 C 20.71875 15.570312 20.09375 13.503906 19.027344 12.144531 C 18.292969 11.191406 17.5 10.609375 16.632812 10.347656 C 16.273438 10.238281 15.832031 10.097656 15.644531 10.035156 C 15.449219 9.957031 14.042969 9.894531 12.054688 9.863281 L 8.785156 9.816406 Z M 8.785156 13.355469 "/>
<path style=" stroke:none;fill-rule:nonzero;fill:rgb(0%,0%,0%);fill-opacity:1;" d="M 2.601562 12.285156 C 2.558594 12.328125 2.523438 17.410156 2.523438 23.582031 C 2.523438 34.613281 2.523438 34.816406 2.304688 35.230469 C 2.007812 35.792969 1.582031 36.074219 0.898438 36.171875 C 0.582031 36.214844 0.308594 36.289062 0.273438 36.332031 C 0.230469 36.40625 0.1875 39.621094 0.21875 40.539062 C 0.21875 40.65625 0.4375 40.679688 1.40625 40.625 C 3.402344 40.507812 4.335938 40.148438 5.46875 39.046875 C 6.214844 38.34375 6.421875 37.988281 6.9375 36.65625 C 7.050781 36.355469 7.082031 34.429688 7.113281 27.367188 L 7.148438 18.457031 L 6.875 18.070312 C 6.730469 17.851562 6.160156 17.042969 5.609375 16.273438 C 5.074219 15.496094 4.292969 14.402344 3.898438 13.839844 C 2.988281 12.542969 2.699219 12.195312 2.601562 12.285156 Z M 2.601562 12.285156 "/>
<path style=" stroke:none;fill-rule:nonzero;fill:rgb(0%,0%,0%);fill-opacity:1;" d="M 8.859375 21.054688 C 8.816406 21.085938 8.785156 25.453125 8.785156 30.742188 L 8.785156 40.355469 L 12.054688 40.300781 C 14.855469 40.257812 15.414062 40.226562 16.03125 40.042969 C 16.917969 39.78125 17.492188 39.511719 17.742188 39.242188 C 17.84375 39.132812 17.972656 39.035156 18.039062 39.035156 C 18.390625 39.035156 19.632812 37.46875 19.707031 36.917969 C 19.785156 36.417969 19.796875 36.441406 18.511719 34.632812 C 16.917969 32.386719 16.546875 31.910156 16.449219 31.964844 C 16.402344 31.996094 16.359375 32.179688 16.359375 32.363281 C 16.359375 32.558594 16.21875 33.164062 16.042969 33.703125 C 15.570312 35.097656 14.84375 35.792969 13.8125 35.792969 L 13.394531 35.792969 L 13.394531 27.367188 L 12.902344 26.664062 C 12.296875 25.800781 11.59375 24.785156 10.902344 23.8125 C 10.617188 23.410156 10.070312 22.621094 9.683594 22.058594 C 8.859375 20.847656 8.949219 20.957031 8.859375 21.054688 Z M 8.859375 21.054688 "/>
<path style=" stroke:none;fill-rule:nonzero;fill:rgb(0%,0%,0%);fill-opacity:1;" d="M 22.246094 35.878906 C 22.210938 35.933594 22.367188 36.222656 22.597656 36.527344 C 22.816406 36.828125 23.320312 37.523438 23.707031 38.0625 C 24.101562 38.601562 24.453125 39.003906 24.507812 38.949219 C 24.5625 38.894531 24.582031 38.179688 24.574219 37.347656 L 24.539062 35.84375 L 23.417969 35.8125 C 22.804688 35.800781 22.277344 35.824219 22.246094 35.878906 Z M 22.246094 35.878906 "/>
<path style=" stroke:none;fill-rule:nonzero;fill:rgb(0%,0%,0%);fill-opacity:1;" d="M 20.113281 38.667969 L 20.148438 40.277344 L 21.179688 40.3125 C 21.75 40.320312 22.257812 40.300781 22.300781 40.257812 C 22.355469 40.203125 22.023438 39.652344 21.574219 39.035156 C 21.125 38.410156 20.71875 37.824219 20.675781 37.738281 C 20.640625 37.652344 20.488281 37.457031 20.34375 37.316406 L 20.082031 37.058594 Z M 20.113281 38.667969 "/>
</g>
</svg>